<?xml version="1.0" encoding="utf-8"?>
<!DOCTYPE svg PUBLIC "-//W3C//DTD SVG 1.1//EN" "http://www.w3.org/Graphics/SVG/1.1/DTD/svg11.dtd">
<svg version="1.1" id="Layer_1" xmlns="http://www.w3.org/2000/svg" x="0px" y="0px"
	 width="196px" height="295px" viewBox="0 0 196 295" enable-background="new 0 0 196 295" xml:space="preserve">
<g>
	<path fill="#333333" d="M25.566,295h66.376l0.004-4.68c0.634-14.678,1.043-22.053,1.043-22.053l-9.767,4.268l-58.509-5.77
		c-0.136,10.514,0.684,23.35,0.684,23.35L25.566,295z"/>
	<path fill="#FFDBAB" d="M179.004,149.143c0,0,9.059-1.777,13.934-7.188c0,0,6.256-6.247,0.889-13.252
		c-5.366-7.003-7.465-6.707-9.262-5.81c-1.797,0.895-6.131,4.091-8.346,10.063c-2.213,5.972-2.922,7.716-3.898,12.198
		c-0.978,4.481,3.779,4.743,3.779,4.743L179.004,149.143z"/>
	<path fill="#FFDBAB" d="M94.491,74.742c0-25.508-16.002-46.188-35.742-46.188c-10.205,0-19.412,5.527-25.924,14.394
		c-1.505,2.047-4.662-1.954-5.858,0.422c-0.57,1.134-1.689,4.602-2.184,5.802c-2.04,4.962-1.018,14.388-1.539,20.218
		c-0.156,1.756-0.236,3.542-0.236,5.352c0,25.509,16.002,46.188,35.741,46.188C78.489,120.931,94.491,100.251,94.491,74.742z"/>
	<rect x="49.635" y="116.219" fill="#FFDBAB" width="19.049" height="23.555"/>
	<path fill="#F3CD2E" d="M25.396,133.083l19.527-0.273c0,0,1.911,0.683,5.188,1.775c3.277,1.093,8.876,2.731,12.972,0.957
		c4.097-1.776,5.054-2.458,9.696-2.458h19.526c0,0,9.147,0.41,12.972,6.555l27.992,45.471l33.592-42.058
		c0.547-0.136,1.775-1.229,3.414-0.819s9.147,3.141,11.332,8.877c0,0,0.412,1.638-0.682,3.549l-38.917,49.021
		c0,0-0.819,2.729-2.186,4.231c-1.365,1.502-5.734,3.824-8.603,3.824c-2.867,0-8.604-2.867-8.604-8.74l-14.747-24.305l-4.916,4.096
		L92.85,273.32c0,0,0.202,2.389-1.639,3.004c-0.819,0.273-6.554,3.824-33.454,3.824c-26.9,0-32.909-2.459-33.455-5.463
		L10.923,147.832C10.923,147.832,8.6,132.811,25.396,133.083z"/>
	<circle fill="#FFFFFF" cx="74.009" cy="66.422" r="7.911"/>
	<path fill="#333333" d="M77.157,62.34c-2.272,0-4.132,1.754-4.307,3.983c0.135-0.646,0.708-1.133,1.395-1.133
		c0.788,0,1.426,0.638,1.426,1.426c0,0.786-0.638,1.425-1.426,1.425c-0.714,0-1.299-0.526-1.404-1.21
		c0.089,2.311,1.984,4.157,4.316,4.157c2.388,0,4.323-1.936,4.323-4.324C81.48,64.276,79.545,62.34,77.157,62.34z"/>
	<path fill="#333333" d="M67.207,57.623c0.123,0,0.246-0.043,0.344-0.133c6.337-5.74,12.269-0.405,12.518-0.174
		c0.208,0.191,0.53,0.18,0.722-0.027c0.19-0.208,0.18-0.53-0.026-0.724c-0.068-0.063-6.858-6.208-13.899,0.168
		c-0.21,0.189-0.226,0.512-0.036,0.722C66.93,57.565,67.068,57.623,67.207,57.623z"/>
	<path fill="#333333" d="M37.644,58.44c0.123,0,0.247-0.043,0.345-0.133c6.336-5.74,12.269-0.405,12.517-0.174
		c0.208,0.191,0.531,0.18,0.723-0.027c0.19-0.208,0.18-0.531-0.027-0.724c-0.067-0.062-6.858-6.208-13.898,0.168
		c-0.21,0.189-0.226,0.512-0.036,0.722C37.367,58.384,37.505,58.44,37.644,58.44z"/>
	<circle fill="#FFFFFF" cx="44.458" cy="67.241" r="7.911"/>
	<path fill="#333333" d="M47.604,63.161c-2.272,0-4.131,1.754-4.306,3.983c0.135-0.646,0.708-1.133,1.395-1.133
		c0.787,0,1.426,0.638,1.426,1.426c0,0.786-0.639,1.425-1.426,1.425c-0.714,0-1.3-0.525-1.404-1.21
		c0.089,2.311,1.984,4.157,4.315,4.157c2.389,0,4.325-1.936,4.325-4.324C51.929,65.097,49.992,63.161,47.604,63.161z"/>
	<path fill="#FFFFFF" d="M60.081,106.457c2.868,0,9.898-0.751,10.582-3.619c0,0-1.16-1.571-4.574-1.844
		c-3.414-0.272-10.07-0.682-14.099,0.956c-1.422,0.578-1.502,1.672-0.376,2.253C52.81,104.819,55.165,106.457,60.081,106.457z"/>
	<path fill="#FFDBAB" d="M112.865,158.738c0,0,2.229-8.957,7.875-13.556c0,0,6.551-5.935,13.279-0.226
		c6.726,5.709,6.324,7.79,5.34,9.54c-0.983,1.75-4.394,5.92-10.467,7.832c-6.074,1.913-7.854,2.532-12.377,3.284
		s-4.55-4.01-4.55-4.01L112.865,158.738z"/>
	<path fill="#F3CD2E" d="M109.102,154.316c0,0,5.838,3.072,11.164,15.158l-10.447,0.307c0,0-4.096-6.35-4.096-7.17
		C105.723,161.793,109.102,154.316,109.102,154.316z"/>
	<path fill="#333333" d="M23.486,74.367c0,0,1.366-24.579,5.189-27.037c0,0,7.101,6.282,23.76,6.282
		c16.658,0,22.393-8.74,25.124-12.29c0,0,1.093,4.369,3.824,7.1c2.73,2.731,13.109,11.47,12.836,25.398
		c0,0,4.915-14.202,4.915-27.856s-7.102-24.032-14.201-20.755c0,0,2.731-20.482-25.125-24.852c0,0,5.462,6.554,4.369,10.104
		c0,0-7.373-8.739-23.76-8.739c0,0-25.124-0.546-40.418,26.764c0,0,12.29-1.366,18.297,7.101c0,0-4.369,4.368-2.185,12.016
		S22.394,71.089,23.486,74.367z"/>
</g>
</svg>
