<?xml version="1.0" encoding="utf-8"?>
<!DOCTYPE svg PUBLIC "-//W3C//DTD SVG 1.1//EN" "http://www.w3.org/Graphics/SVG/1.1/DTD/svg11.dtd">
<svg version="1.1" id="Layer_1" xmlns="http://www.w3.org/2000/svg" x="0px" y="0px"
	 width="214px" height="431px" viewBox="0 0 214 431" enable-background="new 0 0 214 431" xml:space="preserve">
<path fill="#603813" d="M126.99,415.507l0.598,4.695c0,0,4.779-3.585,18.266-4.183l18.776-0.172l0.341,14.339
	c0,0-29.701,0.514-40.027,0c0,0-34.481,0.514-42.333-0.256c0,0-1.024-12.034,24.666-14.425l16.813-0.684L126.99,415.507z"/>
<path fill="#333333" d="M113.249,250.813l54.737-0.568c2.73,7.967,0.568,18.663,0.568,18.663l-3.982,147.938l-22.531-0.113
	l0.113-124.61l-11.038,0.228l-3.757,124.154h-22.531l-0.113-148.621c-2.048-10.242-1.024-17.184-1.024-17.184L113.249,250.813z"/>
<path fill="#FFDAAA" d="M21.926,229.361c0,0-9.389-1.366-15.96,2.219c0,0-8.193,3.927-5.377,12.546
	c2.816,8.621,4.95,9.047,6.998,8.791c2.049-0.256,7.341-1.877,11.522-6.912c4.182-5.036,5.462-6.487,7.938-10.498
	c2.475-4.012-2.049-5.89-2.049-5.89L21.926,229.361z"/>
<path fill="#FFDAAA" d="M187.247,250.698c0,0-4.608,2.731-7.255,7.511s-5.292,11.011,0,15.448s12.033,6.315,14.339,2.305
	s4.012-11.353,2.048-24.41L187.247,250.698z"/>
<path fill="#666666" d="M158.199,127.682h-6.145c0-9.789-6.842-17.753-15.25-17.753s-15.248,7.964-15.248,17.753h-6.146
	c0-13.177,9.598-23.898,21.395-23.898S158.199,114.505,158.199,127.682z"/>
<path fill="#666666" d="M92.766,175.364l0.228,37.212c0,0-0.455,9.787,10.015,11.722l-5.463-57.241l-4.324-0.342L92.766,175.364z"/>
<path fill="#666666" d="M180.505,154.766v57.81c0,0,1.138,10.355-13.2,12.177l10.582-71.694L180.505,154.766z"/>
<path fill="#FFDAAA" d="M103.349,61.679c0,0,0,6.259,0,9.104c0,2.845,3.414,25.491,24.01,33.001v15.477l8.649,3.642l10.354-3.983
	v-14.793c0,0,26.287-7.853,25.035-41.537c0,0-3.414-28.792-4.209-29.019c-0.797-0.227-33.344-10.697-33.344-10.697l-23.328,2.958
	l-3.755,8.421L103.349,61.679z"/>
<circle fill="#FFFFFF" cx="118.327" cy="58.407" r="6.956"/>
<path fill="#333333" d="M115.555,54.818c-2,0-3.635,1.543-3.787,3.502c0.117-0.569,0.623-0.997,1.227-0.997
	c0.691,0,1.253,0.562,1.253,1.253c0,0.692-0.562,1.253-1.253,1.253c-0.627,0-1.143-0.462-1.234-1.064
	c0.078,2.031,1.745,3.655,3.795,3.655c2.1,0,3.803-1.702,3.803-3.802C119.355,56.521,117.652,54.818,115.555,54.818z"/>
<path fill="#333333" d="M123.404,50.171c-0.121,0-0.244-0.043-0.342-0.132c-6.349-5.75-12.289-0.405-12.539-0.174
	c-0.207,0.191-0.53,0.179-0.724-0.029c-0.19-0.208-0.18-0.531,0.028-0.723c0.066-0.063,6.869-6.22,13.921,0.167
	c0.21,0.189,0.226,0.514,0.035,0.723C123.684,50.114,123.545,50.171,123.404,50.171z"/>
<circle fill="#FFFFFF" cx="143.591" cy="58.407" r="6.956"/>
<path fill="#333333" d="M140.816,54.818c-1.998,0-3.633,1.543-3.787,3.502c0.119-0.569,0.623-0.997,1.228-0.997
	c0.691,0,1.253,0.562,1.253,1.253c0,0.692-0.562,1.253-1.253,1.253c-0.628,0-1.144-0.462-1.233-1.064
	c0.076,2.031,1.744,3.655,3.795,3.655c2.1,0,3.802-1.702,3.802-3.802C144.619,56.521,142.917,54.818,140.816,54.818z"/>
<path fill="#333333" d="M152.083,50.171c-0.123,0-0.245-0.043-0.345-0.132c-6.348-5.75-12.287-0.405-12.536-0.174
	c-0.208,0.191-0.531,0.179-0.724-0.029s-0.181-0.531,0.026-0.723c0.067-0.063,6.869-6.22,13.921,0.167
	c0.211,0.189,0.227,0.514,0.036,0.723C152.361,50.114,152.223,50.171,152.083,50.171z"/>
<path fill="#F5F5F5" d="M124.729,91.437c0,0,8.578-0.213,11.479-0.811l-7.212,3.5L124.729,91.437z"/>
<path fill="#EB332E" d="M126.678,117.896c2.242,0.886,7.453,2.446,7.453,2.446s1.479,0.797,5.463-0.569
	c3.982-1.366,6.715-2.674,8.99-2.731s21.906-0.171,21.906-0.171s6.601,0.171,10.07,5.747l32.461,57.241c0,0,1.877,2.987,0.428,9.815
	c-1.451,6.828-13.485,60.6-13.485,60.6s-0.598,3.328-3.585,3.328c-2.986,0-10.327-1.024-12.375-3.5c0,0-1.408-1.194-0.98-3.158
	l13.398-60.64l-17.056-30.398l-2.333,21.451l-8.079,73.855c0,0,0,1.936-0.91,2.676c0,0-4.097,4.153-31.522,4.153
	c-27.424,0-31.692-3.528-32.318-4.153c-0.626-0.627-0.854-2.104-1.081-4.041c-0.228-1.934-8.079-76.928-8.079-76.928l-5.748,21.736
	c0,0-0.796,5.007-4.039,7.397l-54.681,36.303c0,0-2.104,1.364-3.527,0.512c-1.423-0.854-7.345-5.684-7.909-11.607
	c-0.228-2.39,1.593-3.13,1.593-3.13l51.893-34.48l15.989-61.395c0,0,1.023-3.015,2.503-4.438c1.479-1.422,2.675-3.243,4.04-4.268
	c1.366-1.024,3.585-2.674,9.331-2.674l17.183-0.114C121.67,116.757,124.23,116.928,126.678,117.896z"/>
<path fill="#333333" d="M128.271,32.66c0,0,15.703,9.901,29.131,8.308c0,0-9.785-5.235-12.744-8.763c0,0,11.949,5.007,18.775,5.121
	c0,0,6.26,12.404,7.738,30.271c0,0,2.391-19.574,2.391-28.678c0,0,8.535,0.797,12.518-0.228c0,0-10.128-10.128-15.703-18.436
	C164.801,11.949,156.834,0,138.285,0s-30.838,12.632-31.863,21.167c0,0-4.894-1.479-8.193-0.228c0,0,3.072,1.024,3.641,2.845
	c0,0-5.348-2.39-6.145,6.828c0,0-0.456,6.486,2.39,11.152c2.846,4.666,3.983,18.208,5.349,25.946c0,0,1.024-12.063,3.414-18.549
	c2.39-6.486,5.804-14.908,5.576-18.208c0,0,10.128,8.535,26.971,10.356C139.424,41.309,129.637,36.743,128.271,32.66z"/>
<polygon fill="#999999" points="109.38,116.075 120.874,116.075 97.205,209.39 93.904,183.671 "/>
<polygon fill="#999999" points="151.714,116.188 163.32,116.188 179.025,183.443 175.611,209.617 "/>
</svg>
