<?xml version="1.0" encoding="utf-8"?>
<!DOCTYPE svg PUBLIC "-//W3C//DTD SVG 1.1//EN" "http://www.w3.org/Graphics/SVG/1.1/DTD/svg11.dtd">
<svg version="1.1" id="Layer_1" xmlns="http://www.w3.org/2000/svg" x="0px" y="0px"
	 width="229px" height="282px" viewBox="0 0 229 282" enable-background="new 0 0 229 282" xml:space="preserve">
<g>
	<rect x="106.433" y="95.664" fill="#FFDBAB" width="18.914" height="18.9"/>
	<path fill="#FFDBAB" d="M168.842,237.924c0,0-10.43,2.172-15.987,8.486c0,0-7.135,7.299-0.836,15.313
		c6.287,8.014,8.715,7.65,10.766,6.582c2.064-1.053,7.029-4.803,9.498-11.736c2.482-6.922,3.279-8.942,4.344-14.139
		c1.066-5.182-4.439-5.424-4.439-5.424L168.842,237.924z"/>
	<path fill="#FFDBAB" d="M79.585,54.3c0,0-3.587,35.914,28.372,45.506l14.705-0.635c0,0,22.505-3.076,27.103-32.727l-0.254-11.253
		l-2.941-27.494c0,0-30.678-8.309-31.958-8.688c-1.283-0.378-22.369-2.563-23.137-2.173c-0.769,0.378-10.618,16.999-10.618,17.511
		c0,0.514-2.212,12.209-2.212,12.209L79.585,54.3z"/>
	<path fill="#FFFFFF" d="M91.472,81.781c0,0,11.251,2.173,16.485,0.89c0,0-1.012,5.249-6.771,5.249
		C101.185,87.92,97.474,88.688,91.472,81.781z"/>
	<rect x="100.295" y="112.338" fill="#CCCCCC" width="30.166" height="22.747"/>
	<polygon fill="#323433" points="136.396,50.47 123.972,49.619 124.172,46.556 136.601,47.407 	"/>
	<polygon fill="#323433" points="148.39,51.278 136.396,50.47 136.601,47.407 148.593,48.229 	"/>
	<path fill="#FFFFFF" d="M98,52.762c0-3.817-3.102-6.919-6.934-6.919c-3.817,0-6.922,3.102-6.922,6.919
		c0,3.832,3.104,6.934,6.922,6.934C94.898,59.696,98,56.594,98,52.762z"/>
	<path fill="#FFFFFF" d="M119.274,52.519c0-3.871-3.129-7.002-6.986-7.002c-3.859,0-6.99,3.131-6.99,7.002
		c0,3.859,3.131,6.987,6.99,6.987C116.146,59.507,119.274,56.378,119.274,52.519z"/>
	<path fill="#333333" d="M89.082,57.106c1.984,0,3.616-1.538,3.764-3.48c-0.106,0.568-0.621,0.985-1.212,0.985
		c-0.689,0-1.257-0.553-1.257-1.242c0-0.687,0.568-1.254,1.257-1.254c0.621,0,1.132,0.458,1.227,1.067
		c-0.083-2.025-1.741-3.643-3.779-3.643c-2.091,0-3.791,1.686-3.791,3.791C85.291,55.42,86.992,57.106,89.082,57.106z"/>
	<path fill="#333333" d="M110.236,56.783c1.999,0,3.616-1.526,3.779-3.48c-0.122,0.565-0.621,0.997-1.228,0.997
		c-0.689,0-1.242-0.565-1.242-1.254c0-0.688,0.553-1.253,1.242-1.253c0.621,0,1.133,0.47,1.228,1.064
		c-0.083-2.023-1.742-3.643-3.779-3.643c-2.091,0-3.791,1.7-3.791,3.791S108.145,56.783,110.236,56.783z"/>
	<path fill="#4E321A" d="M80.354,45.598c0,0,4.467-20.708,17.889-18.658c0,0-2.549,6.895-5.625,9.971c0,0,11.13-2.818,17.523-7.419
		c0,0-3.587,6.771-12.789,9.199c0,0,23.137-0.121,34.131-6.139c0,0,5.76,12.156,0.393,19.82c0,0,9.32-0.257,12.006-9.971
		c0,0,1.795,21.869,6.531,25.58c0,0,0.254-9.728,1.012-16.756c0.77-7.029,2.428-14.826,2.428-23.528
		c0-8.688-2.928-20.317-11.887-18.025c0,0-0.633-8.821-3.453-9.457c0,0,0.394,6.26-0.77,6.907c0,0-2.171-6.786-23.514-6.786
		c0,0-18.927,0.136-29.019,9.592c-10.104,9.459-7.286,32.473-7.029,36.305L80.354,45.598z"/>
	<path fill="#323433" d="M124.481,53.031c0.121-0.565,0.217-1.065,0.271-1.497c0.605-3.927,0.296-6.706,0.296-6.706l-6.731-0.89
		c-0.201-0.027-0.392-0.053-0.606-0.068l-0.121-0.027v0.015c-1.079-0.121-2.307-0.174-3.669-0.174
		c-6.881,0-9.917,2.279-10.941,3.318h-3.616c-1.038-1.039-4.074-3.318-10.94-3.318c-1.377,0-2.59,0.053-3.684,0.174v-0.015
		l-0.121,0.027c-0.216,0.015-0.405,0.041-0.606,0.068l-6.733,0.89c0,0-0.31,2.779,0.311,6.706c0.042,0.432,0.136,0.931,0.257,1.497
		c0.189,0.919,0.337,1.351,0.444,1.458c0.446,1.215,1.135,2.496,2.214,3.602c1.833,1.889,4.356,2.847,7.499,2.847
		c0.014,0,0.121,0.015,0.284,0.015c1.121,0,10.686-0.34,11.644-11.644h2.469c0.958,11.304,10.521,11.644,11.642,11.644
		c0.163,0,0.269-0.015,0.284-0.015c3.144,0,5.665-0.958,7.501-2.847c1.08-1.106,1.766-2.387,2.213-3.602
		C124.146,54.382,124.293,53.95,124.481,53.031z M88.287,58.644c-0.106,0-0.175,0-0.189,0c-2.575,0-4.56-0.728-5.949-2.159
		c-2.428-2.496-2.359-6.34-2.359-6.381c0-1.943,0-4.114,8.634-4.114c6.044,0,8.54,1.889,9.255,2.576
		C97.164,57.916,90.377,58.644,88.287,58.644z M120.181,56.485c-1.391,1.431-3.359,2.159-5.938,2.159c-0.012,0-0.092,0-0.201,0
		c-2.091,0-8.876-0.728-9.388-10.078c0.713-0.687,3.208-2.576,9.267-2.576c8.62,0,8.62,2.171,8.62,4.114
		C122.54,50.145,122.606,53.989,120.181,56.485z"/>
	<path fill="#6E4B2D" d="M89.934,10.443c10.994-7.028,31.836-6.842,37.275-6.194c5.423,0.636,10.535,2.874,10.535,2.874
		s-2.171-6.786-23.514-6.786c0,0-18.927,0.136-29.019,9.592c-4.317,4.033-6.274,10.55-7.082,16.972
		C80.664,18.294,83.621,14.488,89.934,10.443z"/>
	<path fill="#6E4B2D" d="M141.967,9.672c0,0,11.318,5.438,11.833,19.888l0.014,0.012c0.025-0.621,0.041-1.242,0.041-1.875
		C153.853,19.009,150.926,7.38,141.967,9.672z"/>
	<path fill="#FFDBAB" d="M23.949,282c2.981-7.84,0.123-17.998,0.123-17.998l-0.73-3.385c0,0-2.75-4.777-6.866-1.432
		c-4.101,3.331-5.532,4.979-10.535,10.36c-4.209,4.537-5.608,9.58-5.941,12.453L23.949,282L23.949,282z"/>
	<path fill="#333333" d="M80.797,282h68.878l0.387-10.982c0,0,1.633-13.236,1.484-24.068L89.244,252.9l-9.51-4.399
		c0,0,0.432,7.596,1.106,22.721L80.797,282z"/>
	<path fill="#FFFFFF" d="M82.905,111.569h20.329c0,0,7.475,17.443,11.887,22.058c0,0,9.012-12.465,11.317-21.869h25.498
		c0,0,8.445,0.702,10.873,7.609c0,0,2.807,0,4.857,1.795l57.781,49.079c0,0,3.453,3.211,3.453,9.472c0,0,0.257,3.453-2.549,7.405
		l-43.724,57.918c0,0-2.631,2.563-4.601,2.049c0,0-6.907-1.023-12.926-8.053c0,0-2.549-4.035-0.377-7.164l38.61-51.01
		l-41.037-35.156L151.56,254.369c0,0-1.023,2.563-3.062,3.32c-2.052,0.768-12.022,3.452-34.268,3.452
		c-22.247,0-33.876-2.036-34.388-6.639l-5.882-63.285l-2.173,10.994l-39.513,64.297c0,0-2.037,2.31-3.32,2.31
		c0,0-6.354,0.66-15.083-8.056c-0.512-0.514-1.914-3.332-0.647-5.76l37.978-62.381l15.083-69.168
		C66.285,123.455,68.848,111.569,82.905,111.569z"/>
</g>
</svg>
